<svg xmlns="http://www.w3.org/2000/svg" viewBox="0 0 21.997 22">
  <path id="warning" d="M21.709,18.02,13.46,1.52a2.749,2.749,0,0,0-4.918,0L.292,18.02A2.75,2.75,0,0,0,2.751,22h16.5a2.75,2.75,0,0,0,2.46-3.98Zm-9.335.542a.687.687,0,0,1-.687.688H10.312a.687.687,0,0,1-.687-.687V17.188a.687.687,0,0,1,.687-.687h1.375a.687.687,0,0,1,.687.688Zm0-5.5a.687.687,0,0,1-.687.688H10.312a.687.687,0,0,1-.687-.688V6.188a.687.687,0,0,1,.687-.687h1.375a.687.687,0,0,1,.687.688Z" transform="translate(-0.002)" />
</svg>
