<svg xmlns="http://www.w3.org/2000/svg" xmlns:xlink="http://www.w3.org/1999/xlink" viewBox="0 0 419.5 281.9"><defs><style>.a{fill:none;}.aa,.ab,.ac,.ad,.ae,.af,.b,.c,.d,.e,.f,.g,.h,.i,.j,.k,.l,.m,.n,.o,.p,.q,.r,.s,.t,.u,.v,.w,.x,.y,.z{fill-rule:evenodd;}.b{fill:url(#a);}.c{fill:#69f;}.d{fill:#76c8d3;}.e{fill:url(#b);}.f{fill:#6174b6;}.g{fill:#465ca5;}.h{fill:url(#c);}.i{fill:#0cf;}.j{fill:#1cbbe8;}.k{fill:url(#d);}.l{fill:url(#e);}.m{fill:url(#f);}.n{fill:#c7d9e6;}.o{fill:#00b8e0;}.p{fill:#005ec4;}.q{fill:url(#g);}.r{fill:url(#h);}.s{fill:#fa9e0d;}.t{fill:url(#i);}.u{fill:url(#j);}.v{fill:url(#k);}.w{fill:url(#l);}.x{fill:#d48500;}.y{fill:url(#m);}.z{fill:url(#n);}.aa{fill:url(#o);}.ab{fill:url(#p);}.ac{fill:url(#q);}.ad{fill:url(#r);}.ae{fill:url(#s);}.af{fill:url(#t);}</style><linearGradient id="a" x1="27143.8" y1="10645.41" x2="26302.33" y2="10842.62" gradientTransform="translate(-408.09 -188.05) scale(0.03)" gradientUnits="userSpaceOnUse"><stop offset="0" stop-color="#963"/><stop offset="1" stop-color="#ff8133"/></linearGradient><linearGradient id="b" x1="17965.81" y1="14961.98" x2="15608.58" y2="15690.27" gradientTransform="translate(-408.09 -188.05) scale(0.03)" gradientUnits="userSpaceOnUse"><stop offset="0" stop-color="#75aad4"/><stop offset="1" stop-color="#16c3f7"/></linearGradient><linearGradient id="c" x1="16577.81" y1="14588.35" x2="22723.4" y2="12588.14" gradientTransform="translate(-408.09 -188.05) scale(0.03)" gradientUnits="userSpaceOnUse"><stop offset="0" stop-color="#039"/><stop offset="0.67" stop-color="#147abb"/><stop offset="1" stop-color="#29c2de"/></linearGradient><linearGradient id="d" x1="23604.21" y1="13980.98" x2="21575.01" y2="14952.1" gradientTransform="translate(-408.09 -188.05) scale(0.03)" gradientUnits="userSpaceOnUse"><stop offset="0" stop-color="#00a3e0"/><stop offset="1" stop-color="#005ec4"/></linearGradient><linearGradient id="e" x1="17086.08" y1="13351.27" x2="21014.04" y2="11901.84" gradientTransform="translate(-408.09 -188.05) scale(0.03)" gradientUnits="userSpaceOnUse"><stop offset="0" stop-color="#73b5e0"/><stop offset="1" stop-color="#a6f7eb"/></linearGradient><linearGradient id="f" x1="24215.05" y1="11557.25" x2="24818.52" y2="11256.29" gradientTransform="translate(-408.09 -188.05) scale(0.03)" gradientUnits="userSpaceOnUse"><stop offset="0" stop-color="#0eaccb"/><stop offset="1" stop-color="#71f5f7"/></linearGradient><linearGradient id="g" x1="25460.08" y1="10159.7" x2="24010.65" y2="10898.91" gradientTransform="translate(-408.09 -188.05) scale(0.03)" gradientUnits="userSpaceOnUse"><stop offset="0" stop-color="#005ec4"/><stop offset="1" stop-color="#66bde0"/></linearGradient><linearGradient id="h" x1="24809.57" y1="13171.34" x2="25678.99" y2="10835.44" gradientTransform="translate(-408.09 -188.05) scale(0.03)" gradientUnits="userSpaceOnUse"><stop offset="0" stop-color="#0047ba"/><stop offset="1" stop-color="#08a1fa"/></linearGradient><linearGradient id="i" x1="24140.76" y1="9855.67" x2="22048.64" y2="9028.06" gradientTransform="translate(-408.09 -188.05) scale(0.03)" gradientUnits="userSpaceOnUse"><stop offset="0" stop-color="#fa9e0d"/><stop offset="0.83" stop-color="#8d5d16"/><stop offset="1" stop-color="#1f1b20"/></linearGradient><linearGradient id="j" x1="24990.23" y1="7947.19" x2="24951.01" y2="7254.99" gradientTransform="translate(-408.09 -188.05) scale(0.03)" gradientUnits="userSpaceOnUse"><stop offset="0" stop-color="#f49911"/><stop offset="1"/></linearGradient><linearGradient id="k" x1="26437.4" y1="8876.55" x2="26855.82" y2="8376.07" gradientTransform="translate(-408.09 -188.05) scale(0.03)" gradientUnits="userSpaceOnUse"><stop offset="0" stop-color="#fa9e0d"/><stop offset="1" stop-color="#0f0f0f"/></linearGradient><linearGradient id="l" x1="26620.92" y1="9963.86" x2="26932.63" y2="9758.92" gradientTransform="translate(-408.09 -188.05) scale(0.03)" gradientUnits="userSpaceOnUse"><stop offset="0" stop-color="#fa9e0d"/><stop offset="1"/></linearGradient><linearGradient id="m" x1="26025.78" y1="8371.24" x2="26332.82" y2="7314.78" gradientTransform="translate(-408.09 -188.05) scale(0.03)" gradientUnits="userSpaceOnUse"><stop offset="0" stop-color="#f27d00"/><stop offset="0.58" stop-color="#a05209"/><stop offset="1" stop-color="#4d2612"/></linearGradient><linearGradient id="n" x1="24010.46" y1="10064.44" x2="22237.82" y2="9698" gradientTransform="translate(-408.09 -188.05) scale(0.03)" gradientUnits="userSpaceOnUse"><stop offset="0" stop-color="#f27d00"/><stop offset="0.76" stop-color="#894c10"/><stop offset="1" stop-color="#1f1b20"/></linearGradient><linearGradient id="o" x1="23317.02" y1="10313.74" x2="22559.1" y2="10252.98" gradientTransform="translate(-408.09 -188.05) scale(0.03)" gradientUnits="userSpaceOnUse"><stop offset="0" stop-color="#d48500"/><stop offset="0.82" stop-color="#6a4300"/><stop offset="1"/></linearGradient><linearGradient id="p" x1="23814.25" y1="8874.5" x2="22779.16" y2="7870.7" gradientTransform="translate(-408.09 -188.05) scale(0.03)" gradientUnits="userSpaceOnUse"><stop offset="0" stop-color="#f28000"/><stop offset="0.76" stop-color="#894e10"/><stop offset="1" stop-color="#1f1b20"/></linearGradient><linearGradient id="q" x1="23564.58" y1="9272.59" x2="22544.63" y2="8430.14" gradientTransform="translate(-408.09 -188.05) scale(0.03)" gradientUnits="userSpaceOnUse"><stop offset="0" stop-color="#ed6e00"/><stop offset="0.73" stop-color="#864510"/><stop offset="1" stop-color="#1f1b20"/></linearGradient><linearGradient id="r" x1="26719.01" y1="9385.09" x2="27127.87" y2="8966.88" gradientTransform="translate(-408.09 -188.05) scale(0.03)" gradientUnits="userSpaceOnUse"><stop offset="0" stop-color="#fcc917"/><stop offset="1" stop-color="#050505"/></linearGradient><linearGradient id="s" x1="25646.11" y1="7668.16" x2="25764.3" y2="6917.09" gradientTransform="translate(-408.09 -188.05) scale(0.03)" gradientUnits="userSpaceOnUse"><stop offset="0" stop-color="#d48500"/><stop offset="1" stop-color="#4a4a4a"/></linearGradient><linearGradient id="t" x1="24271.44" y1="8029.05" x2="24072.91" y2="7477.61" gradientTransform="translate(-408.09 -188.05) scale(0.03)" gradientUnits="userSpaceOnUse"><stop offset="0" stop-color="#fcbd30"/><stop offset="1"/></linearGradient></defs><path class="a" d="M122.9,224.8c49.3,17,171.2,78.7,174.6-23.8m0,.1a56,56,0,0,0-15-40.5m0,0c-10-10.5-25.1-18.1-45.7-19.7m.1,0a131.15,131.15,0,0,0-34.4,2.2c-58.1,11.1-212,34.8-119.4,63.5"/><path class="a" d="M50.3,240c-9.7,5.9-29.2,22.6-24.2,25.4,15.6,8.6,86-26.7,99.2-39.7"/><path class="a" d="M281.7,159.7c-22,41.6-98,49.6-158.8,65.1"/><path class="a" d="M333.4,106.3c-1,11.5-8.9,22.3-10.1,32-2.6,20.7-2.5,41.1-19.3,58.8"/><path class="b" d="M333.6,106.5l-3.7,12.9c24.4-3.6,39.4-6.7,71.2-1.3C382,109.8,355.8,105.7,333.6,106.5Z"/><path class="a" d="M330.1,102.2c44.3-38,16.5,3,3.5,4.3"/><path class="a" d="M285,97.6c-83.6-26.7-98.1-54.2,2.8-1.5"/><path class="a" d="M276.5,103.5c-89.9-18.8-54.7-29.3,8.5-5.8"/><path class="a" d="M271.7,108.4c-53.3.7-48.4-14.8,4.8-4.9"/><path class="c" d="M83,206.6c56-24.1,131.7-54,155.3-65.6-.5,0-1-.1-1.4-.1a131.15,131.15,0,0,0-34.4,2.2C144.4,154.2-9.5,177.9,83,206.6Z"/><path class="d" d="M238.3,141C214.7,152.6,139,182.5,83,206.6c-35.9,15.5-63.8,28.5-64.6,32.9-.2,1.3,4.9,2.3,19.2,2,4.2-.3,8.5-.8,12.7-1.5,24.1-4.1,48.8-14.3,72.6-15.2,60.8-15.5,136.8-23.5,158.8-65.1C271.9,149.9,257.6,142.8,238.3,141Z"/><path class="e" d="M122.9,224.8c-23.7.9-48.5,11.1-72.6,15.2-9.7,5.9-29.2,22.6-24.2,25.4,15.6,8.6,86-26.7,99.2-39.7l-2.4-.9Z"/><path class="d" d="M125.3,225.6c50.6,18.1,168.2,75.9,172.2-23.8V201a56,56,0,0,0-15-40.5,6.47,6.47,0,0,1-.8-.9c-22,41.6-98,49.6-158.8,65.1a11.72,11.72,0,0,0,2.4.9Z"/><path class="d" d="M289.2,155.5a55.81,55.81,0,0,1,15,40.5v.8c16.6-17.6,16.4-37.9,19.1-58.5,1.2-9.6,8.9-20.1,10.1-31.4-13,20.6-37,32.1-44.9,47.7.2.3.5.6.7.9Z"/><path class="d" d="M288.4,154.6c7.9-15.6,31.9-27.1,44.9-47.7a1.27,1.27,0,0,1,.1-.6c-9.8,1.9-31.8,27.5-88.4,29.7C264.3,137.8,278.6,144.8,288.4,154.6Z"/><path class="d" d="M245,136c56.6-2.1,78.6-27.8,88.4-29.7C312.3,96.7,279.7,111.3,245,136Z"/><path class="d" d="M245,136c34.8-24.7,67.3-39.2,88.4-29.7a1.27,1.27,0,0,1-.1.6c.1-.1.2-.3.3-.4a31.45,31.45,0,0,0-3-4.7l-.9-1.2a24,24,0,0,0-3.9-3.9A29.91,29.91,0,0,0,320,93a24.68,24.68,0,0,0-7.5-2.1,28.28,28.28,0,0,0-4.1-.3,41.54,41.54,0,0,0-4.9.3A46.81,46.81,0,0,0,290.1,95c-.7.3-1.4.7-2.1,1-.9.5-1.9,1-2.8,1.5a75.27,75.27,0,0,0-8.5,5.8l-4.8,4.9Z"/><path class="f" d="M281.7,159.7c-9.8-9.8-24.1-16.9-43.4-18.7C214.7,152.6,139,182.5,83,206.6c-35.9,15.5-63.8,28.5-64.6,32.9-.2,1.3,4.9,2.3,19.2,2,4.2-.3,8.5-.8,12.7-1.5,24.1-4.1,48.8-14.3,72.6-15.2C183.7,209.3,259.7,201.3,281.7,159.7Z"/><path class="g" d="M281.7,159.7c-9.8-9.8-24.1-16.9-43.4-18.7C214.7,152.6,139,182.5,83,206.6c-35.9,15.5-63.8,28.5-64.6,32.9-.2,1.3,4.9,2.3,19.2,2,4.2-.3,8.5-.8,12.7-1.5,24.1-4.1,48.8-14.3,72.6-15.2C183.7,209.3,259.7,201.3,281.7,159.7Z"/><path class="h" d="M281.7,159.7c-9.8-9.8-24.1-16.9-43.4-18.7C214.7,152.6,139,182.5,83,206.6c-35.9,15.5-63.8,28.5-64.6,32.9-.2,1.3,4.9,2.3,19.2,2,4.2-.3,8.5-.8,12.7-1.5,24.1-4.1,48.8-14.3,72.6-15.2C183.7,209.3,259.7,201.3,281.7,159.7Z"/><path class="i" d="M281.7,159.7c-22,41.6-98,49.6-158.8,65.1a22.5,22.5,0,0,0,2.4.8c50.6,18.1,168.2,75.9,172.2-23.8V201a56,56,0,0,0-15-40.5l-.8-.8Z"/><path class="j" d="M83,206.6c56-24.1,131.7-54,155.3-65.6-.5,0-1-.1-1.4-.1a131.15,131.15,0,0,0-34.4,2.2C144.4,154.2-9.5,177.9,83,206.6Z"/><path class="k" d="M281.7,159.7c-22,41.6-98,49.6-158.8,65.1a22.5,22.5,0,0,0,2.4.8c50.6,18.1,168.2,75.9,172.2-23.8V201a56,56,0,0,0-15-40.5l-.8-.8Z"/><path class="l" d="M83,206.6c56-24.1,131.7-54,155.3-65.6-.5,0-1-.1-1.4-.1a131.15,131.15,0,0,0-34.4,2.2C144.4,154.2-9.5,177.9,83,206.6Z"/><path class="m" d="M245,136c19.3,1.8,33.6,8.9,43.4,18.7,7.9-15.6,31.9-27.1,44.9-47.7a1.27,1.27,0,0,1,.1-.6C323.6,108.2,301.6,133.8,245,136Z"/><path class="n" d="M245,136c34.8-24.7,67.3-39.2,88.4-29.7a1.27,1.27,0,0,1-.1.6c.1-.1.2-.3.3-.4a31.45,31.45,0,0,0-3-4.7l-.9-1.2a24,24,0,0,0-3.9-3.9A29.91,29.91,0,0,0,320,93a24.68,24.68,0,0,0-7.5-2.1,28.28,28.28,0,0,0-4.1-.3,41.54,41.54,0,0,0-4.9.3A46.81,46.81,0,0,0,290.1,95c-.7.3-1.4.7-2.1,1-.9.5-1.9,1-2.8,1.5a75.27,75.27,0,0,0-8.5,5.8l-4.8,4.9Z"/><path class="o" d="M333.4,106.3c-21.1-9.6-53.7,5-88.4,29.7,56.6-2.2,78.6-27.8,88.4-29.7Z"/><path class="p" d="M333.3,106.9c-13,20.6-37,32.1-44.9,47.7a6.47,6.47,0,0,1,.8.9,55.81,55.81,0,0,1,15,40.5v.8c16.6-17.6,16.4-37.9,19.1-58.5,1.2-9.6,8.8-20.1,10-31.4Z"/><path class="q" d="M245,136c34.8-24.7,67.3-39.2,88.4-29.7a1.27,1.27,0,0,1-.1.6c.1-.1.2-.3.3-.4a31.45,31.45,0,0,0-3-4.7l-.9-1.2a24,24,0,0,0-3.9-3.9A29.91,29.91,0,0,0,320,93a24.68,24.68,0,0,0-7.5-2.1,28.28,28.28,0,0,0-4.1-.3,41.54,41.54,0,0,0-4.9.3A46.81,46.81,0,0,0,290.1,95c-.7.3-1.4.7-2.1,1-.9.5-1.9,1-2.8,1.5-5.8,3.4-8.7,6-13.3,10.7Z"/><path class="r" d="M333.3,106.9c-13,20.6-37,32.1-44.9,47.7a6.47,6.47,0,0,1,.8.9,55.81,55.81,0,0,1,15,40.5v.8c16.6-17.6,16.4-37.9,19.1-58.5,1.2-9.6,8.8-20.1,10-31.4Z"/><path class="s" d="M276.5,103.5c-53.2-9.9-58.1,5.6-4.8,4.9Z"/><path class="t" d="M265.4,84.7c-69.8-34-59.4-15.1,2.9,7.2,5.3,1.6,10.9,3.5,16.7,5.7.9-.5,1.9-1.1,2.8-1.5C279.6,92.2,272.1,88.4,265.4,84.7Z"/><path class="u" d="M308.7,68.5c-2.4-65.1-29.9-79.4-5.3,22.5a40.28,40.28,0,0,1,4.9-.3V88.1C308.2,81.2,308.4,74.6,308.7,68.5Z"/><path class="v" d="M319.9,93a21.13,21.13,0,0,1,5.8,3.7c2-2.6,4-4.9,5.8-7.1,12.1-17.3,17.9-41,17.5-43.7C347.1,29.8,320.6,91.2,319.9,93Z"/><path class="w" d="M333.6,106.5c12.9-1.3,40.6-42-3-4.7A31.45,31.45,0,0,1,333.6,106.5Z"/><path class="x" d="M285,97.6c-5.9-1.9-11.5-3.8-16.7-5.7-51.9-15.8-73.4-5.6,8.2,11.5a79.73,79.73,0,0,1,8.5-5.8Z"/><path class="y" d="M330.2,65.8c27.5-81.7-3.1-44.4-17.4,25.1a25.88,25.88,0,0,1,7.6,2.4c3.9-10.3,7.1-19.5,9.8-27.5Z"/><path class="z" d="M268.3,92c-51.9-15.8-73.4-5.6,8.2,11.5a75.27,75.27,0,0,1,8.5-5.8c-5.9-2-11.5-3.8-16.7-5.7Z"/><path class="aa" d="M276.5,103.5c-52.9-9.9-57.7,5.9-5.2,5.3C273.2,107.1,274.7,105.3,276.5,103.5Z"/><path class="ab" d="M298.9,91.8c-31.2-50.2-102.1-82.9-28.8-17q9.75,8.1,22.2,19.2a9.29,9.29,0,0,1,1-.5l5.6-1.7Z"/><path class="ac" d="M287.8,95.8c.4-.2,1.3-.7,1.7-.9a6,6,0,0,0,.7-.3c.7-.3,1.5-.7,1.5-.7-8.1-7-60-47.1-61.6-42C227.2,62.2,274.6,88.6,287.8,95.8Z"/><path class="a" d="M298.9,91.8c-57-86.9-11.8-86.5,4.5-.9"/><path class="ad" d="M330.4,101.2c20.2-12.9,49.2-62.8-4.6-4.5A48.28,48.28,0,0,1,330.4,101.2Z"/><path class="ae" d="M308.6,69.5c0,6.1-.1,14.2-.4,21.1h0a30,30,0,0,1,4.3.3C338.5-22.2,313,.4,308.6,69.5Z"/><path class="af" d="M299.6,74.2c-18-67.4-52.6-63.4-3.3,13.6.9,1.3,1.8,2.7,2.6,4a35.83,35.83,0,0,1,4.5-.9c-1.5-5.9-2.7-11.5-3.8-16.7Z"/></svg>